<svg width="184" height="60" viewBox="0 0 184 60" fill="none" xmlns="http://www.w3.org/2000/svg">
<path d="M44.961 31.807H43.975C43.975 33.1603 43.975 34.4557 43.975 35.693C43.9943 36.911 44.0137 38.1193 44.033 39.318H44.961C46.3143 39.318 47.3583 39.0087 48.093 38.39C48.847 37.7713 49.224 36.8433 49.224 35.606C49.224 34.2913 48.8663 33.3343 48.151 32.735C47.455 32.1163 46.3917 31.807 44.961 31.807ZM45.048 23.629H44.033C44.0137 24.7117 43.9943 25.8137 43.975 26.935C43.975 28.037 43.975 29.1487 43.975 30.27H44.787C46.0243 30.27 46.933 29.98 47.513 29.4C48.093 28.8007 48.383 27.9307 48.383 26.79C48.383 24.6827 47.2713 23.629 45.048 23.629ZM36.957 23.513V21.947H46.324C47.9673 21.947 49.282 22.15 50.268 22.556C51.254 22.9427 51.9693 23.4743 52.414 24.151C52.8587 24.8277 53.081 25.5913 53.081 26.442C53.081 27.0993 52.936 27.718 52.646 28.298C52.356 28.8587 51.8533 29.3613 51.138 29.806C50.4227 30.2313 49.427 30.56 48.151 30.792C50.3163 31.0433 51.863 31.5943 52.791 32.445C53.7383 33.2763 54.212 34.3493 54.212 35.664C54.212 36.2633 54.0767 36.882 53.806 37.52C53.5353 38.1387 53.0713 38.709 52.414 39.231C51.7567 39.753 50.8383 40.1783 49.659 40.507C48.499 40.8357 47.02 41 45.222 41H36.957V39.434L39.132 39.202C39.1707 38.0033 39.19 36.795 39.19 35.577C39.19 34.359 39.19 33.1313 39.19 31.894V31.053C39.19 29.8543 39.19 28.646 39.19 27.428C39.19 26.1907 39.1707 24.963 39.132 23.745L36.957 23.513ZM66.9246 41.406C65.2426 41.406 64.1793 40.71 63.7346 39.318C63.116 39.9753 62.5166 40.4973 61.9366 40.884C61.376 41.2513 60.593 41.435 59.5876 41.435C58.4663 41.435 57.548 41.116 56.8326 40.478C56.1366 39.84 55.7886 38.9217 55.7886 37.723C55.7886 37.027 55.9433 36.3987 56.2526 35.838C56.562 35.2773 57.1226 34.7553 57.9346 34.272C58.7466 33.7887 59.897 33.3343 61.3856 32.909C61.6756 32.8123 62.014 32.7157 62.4006 32.619C62.7873 32.5223 63.1836 32.4257 63.5896 32.329V31.372C63.5896 30.0767 63.4253 29.197 63.0966 28.733C62.7873 28.269 62.1686 28.037 61.2406 28.037C61.1053 28.037 60.9796 28.037 60.8636 28.037C60.7476 28.037 60.6123 28.0467 60.4576 28.066L60.3126 29.342C60.2933 30.2893 60.071 30.9757 59.6456 31.401C59.2396 31.8263 58.7563 32.039 58.1956 32.039C57.1323 32.039 56.4846 31.5557 56.2526 30.589C56.33 29.3903 56.939 28.414 58.0796 27.66C59.2203 26.906 60.8346 26.529 62.9226 26.529C64.7786 26.529 66.103 26.9543 66.8956 27.805C67.7076 28.6557 68.1136 30.0573 68.1136 32.01V38.506C68.1136 39.0667 68.3263 39.347 68.7516 39.347C68.9063 39.347 69.0513 39.3083 69.1866 39.231C69.322 39.1343 69.467 38.9603 69.6216 38.709L70.4046 39.231C70.0566 40.0043 69.6023 40.565 69.0416 40.913C68.5003 41.2417 67.7946 41.406 66.9246 41.406ZM60.0806 36.969C60.0806 37.6843 60.245 38.216 60.5736 38.564C60.9216 38.912 61.3373 39.086 61.8206 39.086C62.0333 39.086 62.2556 39.0377 62.4876 38.941C62.7196 38.8443 63.087 38.622 63.5896 38.274V33.576C63.3383 33.6533 63.087 33.7403 62.8356 33.837C62.6036 33.9143 62.4006 33.9917 62.2266 34.069C61.5693 34.3397 61.0473 34.7263 60.6606 35.229C60.274 35.7123 60.0806 36.2923 60.0806 36.969ZM76.2119 41.435C74.3752 41.435 72.6932 40.9903 71.1659 40.101L71.2529 36.563H73.5729L74.0659 39.434C74.4139 39.5693 74.7619 39.6757 75.1099 39.753C75.4579 39.811 75.8349 39.84 76.2409 39.84C77.0722 39.84 77.7102 39.7047 78.1549 39.434C78.5996 39.144 78.8219 38.709 78.8219 38.129C78.8219 37.6843 78.6576 37.2977 78.3289 36.969C78.0002 36.6403 77.3526 36.3407 76.3859 36.07L74.8199 35.606C73.6986 35.2773 72.8286 34.7457 72.2099 34.011C71.6106 33.2763 71.3109 32.3677 71.3109 31.285C71.3109 29.951 71.8329 28.8297 72.8769 27.921C73.9209 26.993 75.4192 26.529 77.3719 26.529C78.2226 26.529 79.0056 26.6353 79.7209 26.848C80.4556 27.0413 81.1999 27.3313 81.9539 27.718L81.7509 30.879H79.4309L78.8509 28.385C78.4449 28.2303 77.9132 28.153 77.2559 28.153C76.5986 28.153 76.0669 28.2883 75.6609 28.559C75.2742 28.8297 75.0809 29.2357 75.0809 29.777C75.0809 30.1637 75.2356 30.5117 75.5449 30.821C75.8542 31.111 76.5116 31.4107 77.5169 31.72L78.9379 32.126C80.3106 32.532 81.2966 33.112 81.8959 33.866C82.4952 34.62 82.7949 35.5383 82.7949 36.621C82.7949 38.1483 82.2052 39.3373 81.0259 40.188C79.8659 41.0193 78.2612 41.435 76.2119 41.435ZM95.3299 41.406C93.6479 41.406 92.5846 40.71 92.1399 39.318C91.5213 39.9753 90.9219 40.4973 90.3419 40.884C89.7813 41.2513 88.9983 41.435 87.9929 41.435C86.8716 41.435 85.9533 41.116 85.2379 40.478C84.5419 39.84 84.1939 38.9217 84.1939 37.723C84.1939 37.027 84.3486 36.3987 84.6579 35.838C84.9673 35.2773 85.5279 34.7553 86.3399 34.272C87.1519 33.7887 88.3023 33.3343 89.7909 32.909C90.0809 32.8123 90.4193 32.7157 90.8059 32.619C91.1926 32.5223 91.5889 32.4257 91.9949 32.329V31.372C91.9949 30.0767 91.8306 29.197 91.5019 28.733C91.1926 28.269 90.5739 28.037 89.6459 28.037C89.5106 28.037 89.3849 28.037 89.2689 28.037C89.1529 28.037 89.0176 28.0467 88.8629 28.066L88.7179 29.342C88.6986 30.2893 88.4763 30.9757 88.0509 31.401C87.6449 31.8263 87.1616 32.039 86.6009 32.039C85.5376 32.039 84.8899 31.5557 84.6579 30.589C84.7353 29.3903 85.3443 28.414 86.4849 27.66C87.6256 26.906 89.2399 26.529 91.3279 26.529C93.1839 26.529 94.5083 26.9543 95.3009 27.805C96.1129 28.6557 96.5189 30.0573 96.5189 32.01V38.506C96.5189 39.0667 96.7316 39.347 97.1569 39.347C97.3116 39.347 97.4566 39.3083 97.5919 39.231C97.7273 39.1343 97.8723 38.9603 98.0269 38.709L98.8099 39.231C98.4619 40.0043 98.0076 40.565 97.4469 40.913C96.9056 41.2417 96.1999 41.406 95.3299 41.406ZM88.4859 36.969C88.4859 37.6843 88.6503 38.216 88.9789 38.564C89.3269 38.912 89.7426 39.086 90.2259 39.086C90.4386 39.086 90.6609 39.0377 90.8929 38.941C91.1249 38.8443 91.4923 38.622 91.9949 38.274V33.576C91.7436 33.6533 91.4923 33.7403 91.2409 33.837C91.0089 33.9143 90.8059 33.9917 90.6319 34.069C89.9746 34.3397 89.4526 34.7263 89.0659 35.229C88.6793 35.7123 88.4859 36.2923 88.4859 36.969ZM107.763 28.269V26.993H113.244V28.269L111.562 28.588L106.777 41.058H104.573L99.3528 28.559L97.9318 28.269V26.993H106.168V28.269L104.341 28.646L107.067 36.07L109.59 28.617L107.763 28.269ZM124.698 41.406C123.016 41.406 121.953 40.71 121.508 39.318C120.889 39.9753 120.29 40.4973 119.71 40.884C119.149 41.2513 118.366 41.435 117.361 41.435C116.24 41.435 115.321 41.116 114.606 40.478C113.91 39.84 113.562 38.9217 113.562 37.723C113.562 37.027 113.717 36.3987 114.026 35.838C114.335 35.2773 114.896 34.7553 115.708 34.272C116.52 33.7887 117.67 33.3343 119.159 32.909C119.449 32.8123 119.787 32.7157 120.174 32.619C120.561 32.5223 120.957 32.4257 121.363 32.329V31.372C121.363 30.0767 121.199 29.197 120.87 28.733C120.561 28.269 119.942 28.037 119.014 28.037C118.879 28.037 118.753 28.037 118.637 28.037C118.521 28.037 118.386 28.0467 118.231 28.066L118.086 29.342C118.067 30.2893 117.844 30.9757 117.419 31.401C117.013 31.8263 116.53 32.039 115.969 32.039C114.906 32.039 114.258 31.5557 114.026 30.589C114.103 29.3903 114.712 28.414 115.853 27.66C116.994 26.906 118.608 26.529 120.696 26.529C122.552 26.529 123.876 26.9543 124.669 27.805C125.481 28.6557 125.887 30.0573 125.887 32.01V38.506C125.887 39.0667 126.1 39.347 126.525 39.347C126.68 39.347 126.825 39.3083 126.96 39.231C127.095 39.1343 127.24 38.9603 127.395 38.709L128.178 39.231C127.83 40.0043 127.376 40.565 126.815 40.913C126.274 41.2417 125.568 41.406 124.698 41.406ZM117.854 36.969C117.854 37.6843 118.018 38.216 118.347 38.564C118.695 38.912 119.111 39.086 119.594 39.086C119.807 39.086 120.029 39.0377 120.261 38.941C120.493 38.8443 120.86 38.622 121.363 38.274V33.576C121.112 33.6533 120.86 33.7403 120.609 33.837C120.377 33.9143 120.174 33.9917 120 34.069C119.343 34.3397 118.821 34.7263 118.434 35.229C118.047 35.7123 117.854 36.2923 117.854 36.969ZM128.881 41V39.637L130.447 39.289C130.467 38.593 130.476 37.839 130.476 37.027C130.476 36.215 130.476 35.5093 130.476 34.91V33.228C130.476 32.4353 130.467 31.8263 130.447 31.401C130.447 30.9563 130.428 30.444 130.389 29.864L128.62 29.603V28.472L134.333 26.529L134.855 26.848L135.029 28.936C135.783 28.0467 136.528 27.428 137.262 27.08C138.016 26.7127 138.819 26.529 139.669 26.529C140.926 26.529 141.931 26.9447 142.685 27.776C143.459 28.6073 143.845 29.8543 143.845 31.517V34.91C143.845 35.548 143.845 36.273 143.845 37.085C143.845 37.8777 143.855 38.6317 143.874 39.347L145.324 39.637V41H137.668V39.637L139.176 39.318C139.196 38.6027 139.205 37.8487 139.205 37.056C139.205 36.244 139.205 35.5287 139.205 34.91V31.865C139.205 30.937 139.08 30.2893 138.828 29.922C138.577 29.5353 138.171 29.342 137.61 29.342C136.856 29.342 136.025 29.69 135.116 30.386V34.91C135.116 35.5093 135.116 36.2247 135.116 37.056C135.116 37.868 135.126 38.6317 135.145 39.347L136.508 39.637V41H128.881Z" fill="#303030"/>
<path d="M6.82033 44.6667C6.20699 44.6667 5.69499 44.4613 5.28433 44.0507C4.87277 43.6391 4.66699 43.1267 4.66699 42.5133V26.82H6.00033V42.5133C6.00033 42.7178 6.08566 42.9058 6.25633 43.0773C6.42788 43.248 6.61588 43.3333 6.82033 43.3333H22.5137V44.6667H6.82033ZM10.8203 40.6667C10.207 40.6667 9.69499 40.4613 9.28433 40.0507C8.87277 39.6391 8.66699 39.1267 8.66699 38.5133V24.1533C8.66699 23.54 8.87277 23.028 9.28433 22.6173C9.69499 22.2058 10.207 22 10.8203 22H25.1803C25.7937 22 26.3057 22.2058 26.7163 22.6173C27.1279 23.028 27.3337 23.54 27.3337 24.1533V38.5133C27.3337 39.1267 27.1283 39.6391 26.7177 40.0507C26.3061 40.4613 25.7937 40.6667 25.1803 40.6667H10.8203ZM18.0003 31.4867L20.667 29.8973L23.3337 31.4867V23.3333H18.0003V31.4867Z" fill="#303030"/>
</svg>
